<svg width="115" height="42" viewBox="0 0 115 42" fill="none" xmlns="http://www.w3.org/2000/svg">
<ellipse cx="5" cy="10.7059" rx="5" ry="4.94118" fill="#D9D9D9"/>
<ellipse cx="15.8333" cy="19.7647" rx="4.16667" ry="4.11765" fill="#D9D9D9"/>
<ellipse cx="5" cy="25.9412" rx="5" ry="4.94118" fill="#088632"/>
<ellipse cx="5" cy="37.0588" rx="5" ry="4.94118" fill="#D9D9D9"/>
<ellipse cx="16.4583" cy="11.3235" rx="3.125" ry="3.08824" fill="#D9D9D9"/>
<ellipse cx="16.0417" cy="3.08824" rx="3.125" ry="3.08824" fill="#D9D9D9"/>
<ellipse cx="32.7083" cy="3.08824" rx="3.125" ry="3.08824" fill="#088632"/>
<ellipse cx="41.875" cy="3.08824" rx="3.125" ry="3.08824" fill="#D9D9D9"/>
<ellipse cx="16.4583" cy="27.7941" rx="3.125" ry="3.08824" fill="#D9D9D9"/>
<ellipse cx="16.4583" cy="36.0294" rx="3.125" ry="3.08824" fill="#D9D9D9"/>
<ellipse cx="24.7917" cy="11.3235" rx="3.125" ry="3.08824" fill="#D9D9D9"/>
<ellipse cx="24.7917" cy="27.7941" rx="3.125" ry="3.08824" fill="#D9D9D9"/>
<ellipse cx="24.5833" cy="19.7647" rx="4.16667" ry="4.11765" fill="#088632"/>
<ellipse cx="33.125" cy="19.5588" rx="3.125" ry="3.08824" fill="#D9D9D9"/>
<ellipse cx="33.125" cy="11.3235" rx="3.125" ry="3.08824" fill="#D9D9D9"/>
<ellipse cx="33.125" cy="27.7941" rx="3.125" ry="3.08824" fill="#D9D9D9"/>
<path d="M41.732 17.12C41.076 17.12 40.448 17.028 39.848 16.844C39.248 16.652 38.772 16.408 38.42 16.112L38.96 14.9C39.296 15.164 39.712 15.384 40.208 15.56C40.704 15.736 41.212 15.824 41.732 15.824C42.172 15.824 42.528 15.776 42.8 15.68C43.072 15.584 43.272 15.456 43.4 15.296C43.528 15.128 43.592 14.94 43.592 14.732C43.592 14.476 43.5 14.272 43.316 14.12C43.132 13.96 42.892 13.836 42.596 13.748C42.308 13.652 41.984 13.564 41.624 13.484C41.272 13.404 40.916 13.312 40.556 13.208C40.204 13.096 39.88 12.956 39.584 12.788C39.296 12.612 39.06 12.38 38.876 12.092C38.692 11.804 38.6 11.436 38.6 10.988C38.6 10.532 38.72 10.116 38.96 9.74C39.208 9.356 39.58 9.052 40.076 8.828C40.58 8.596 41.216 8.48 41.984 8.48C42.488 8.48 42.988 8.544 43.484 8.672C43.98 8.8 44.412 8.984 44.78 9.224L44.288 10.436C43.912 10.212 43.524 10.048 43.124 9.944C42.724 9.832 42.34 9.776 41.972 9.776C41.54 9.776 41.188 9.828 40.916 9.932C40.652 10.036 40.456 10.172 40.328 10.34C40.208 10.508 40.148 10.7 40.148 10.916C40.148 11.172 40.236 11.38 40.412 11.54C40.596 11.692 40.832 11.812 41.12 11.9C41.416 11.988 41.744 12.076 42.104 12.164C42.464 12.244 42.82 12.336 43.172 12.44C43.532 12.544 43.856 12.68 44.144 12.848C44.44 13.016 44.676 13.244 44.852 13.532C45.036 13.82 45.128 14.184 45.128 14.624C45.128 15.072 45.004 15.488 44.756 15.872C44.516 16.248 44.144 16.552 43.64 16.784C43.136 17.008 42.5 17.12 41.732 17.12ZM49.4109 17.084C48.7549 17.084 48.1709 16.944 47.6589 16.664C47.1469 16.376 46.7429 15.984 46.4469 15.488C46.1509 14.992 46.0029 14.428 46.0029 13.796C46.0029 13.156 46.1509 12.592 46.4469 12.104C46.7429 11.608 47.1469 11.22 47.6589 10.94C48.1709 10.66 48.7549 10.52 49.4109 10.52C50.0749 10.52 50.6629 10.66 51.1749 10.94C51.6949 11.22 52.0989 11.604 52.3869 12.092C52.6829 12.58 52.8309 13.148 52.8309 13.796C52.8309 14.428 52.6829 14.992 52.3869 15.488C52.0989 15.984 51.6949 16.376 51.1749 16.664C50.6629 16.944 50.0749 17.084 49.4109 17.084ZM49.4109 15.8C49.7789 15.8 50.1069 15.72 50.3949 15.56C50.6829 15.4 50.9069 15.168 51.0669 14.864C51.2349 14.56 51.3189 14.204 51.3189 13.796C51.3189 13.38 51.2349 13.024 51.0669 12.728C50.9069 12.424 50.6829 12.192 50.3949 12.032C50.1069 11.872 49.7829 11.792 49.4229 11.792C49.0549 11.792 48.7269 11.872 48.4389 12.032C48.1589 12.192 47.9349 12.424 47.7669 12.728C47.5989 13.024 47.5149 13.38 47.5149 13.796C47.5149 14.204 47.5989 14.56 47.7669 14.864C47.9349 15.168 48.1589 15.4 48.4389 15.56C48.7269 15.72 49.0509 15.8 49.4109 15.8ZM54.4693 17V10.232C54.4693 9.56 54.6653 9.024 55.0573 8.624C55.4573 8.216 56.0253 8.012 56.7613 8.012C57.0253 8.012 57.2733 8.04 57.5053 8.096C57.7453 8.152 57.9453 8.24 58.1053 8.36L57.6973 9.488C57.5853 9.4 57.4573 9.336 57.3133 9.296C57.1693 9.248 57.0213 9.224 56.8693 9.224C56.5573 9.224 56.3213 9.312 56.1613 9.488C56.0013 9.656 55.9213 9.912 55.9213 10.256V10.976L55.9693 11.648V17H54.4693ZM53.4133 11.84V10.64H57.6853V11.84H53.4133ZM61.1069 17.084C60.4029 17.084 59.8589 16.904 59.4749 16.544C59.0909 16.176 58.8989 15.636 58.8989 14.924V9.176H60.3989V14.888C60.3989 15.192 60.4749 15.428 60.6269 15.596C60.7869 15.764 61.0069 15.848 61.2869 15.848C61.6229 15.848 61.9029 15.76 62.1269 15.584L62.5469 16.652C62.3709 16.796 62.1549 16.904 61.8989 16.976C61.6429 17.048 61.3789 17.084 61.1069 17.084ZM57.8429 11.84V10.64H62.1149V11.84H57.8429Z" fill="black"/>
<path d="M49.732 28.12C49.076 28.12 48.448 28.028 47.848 27.844C47.248 27.652 46.772 27.408 46.42 27.112L46.96 25.9C47.296 26.164 47.712 26.384 48.208 26.56C48.704 26.736 49.212 26.824 49.732 26.824C50.172 26.824 50.528 26.776 50.8 26.68C51.072 26.584 51.272 26.456 51.4 26.296C51.528 26.128 51.592 25.94 51.592 25.732C51.592 25.476 51.5 25.272 51.316 25.12C51.132 24.96 50.892 24.836 50.596 24.748C50.308 24.652 49.984 24.564 49.624 24.484C49.272 24.404 48.916 24.312 48.556 24.208C48.204 24.096 47.88 23.956 47.584 23.788C47.296 23.612 47.06 23.38 46.876 23.092C46.692 22.804 46.6 22.436 46.6 21.988C46.6 21.532 46.72 21.116 46.96 20.74C47.208 20.356 47.58 20.052 48.076 19.828C48.58 19.596 49.216 19.48 49.984 19.48C50.488 19.48 50.988 19.544 51.484 19.672C51.98 19.8 52.412 19.984 52.78 20.224L52.288 21.436C51.912 21.212 51.524 21.048 51.124 20.944C50.724 20.832 50.34 20.776 49.972 20.776C49.54 20.776 49.188 20.828 48.916 20.932C48.652 21.036 48.456 21.172 48.328 21.34C48.208 21.508 48.148 21.7 48.148 21.916C48.148 22.172 48.236 22.38 48.412 22.54C48.596 22.692 48.832 22.812 49.12 22.9C49.416 22.988 49.744 23.076 50.104 23.164C50.464 23.244 50.82 23.336 51.172 23.44C51.532 23.544 51.856 23.68 52.144 23.848C52.44 24.016 52.676 24.244 52.852 24.532C53.036 24.82 53.128 25.184 53.128 25.624C53.128 26.072 53.004 26.488 52.756 26.872C52.516 27.248 52.144 27.552 51.64 27.784C51.136 28.008 50.5 28.12 49.732 28.12ZM57.4109 28.084C56.7549 28.084 56.1709 27.944 55.6589 27.664C55.1469 27.376 54.7429 26.984 54.4469 26.488C54.1509 25.992 54.0029 25.428 54.0029 24.796C54.0029 24.156 54.1509 23.592 54.4469 23.104C54.7429 22.608 55.1469 22.22 55.6589 21.94C56.1709 21.66 56.7549 21.52 57.4109 21.52C58.0749 21.52 58.6629 21.66 59.1749 21.94C59.6949 22.22 60.0989 22.604 60.3869 23.092C60.6829 23.58 60.8309 24.148 60.8309 24.796C60.8309 25.428 60.6829 25.992 60.3869 26.488C60.0989 26.984 59.6949 27.376 59.1749 27.664C58.6629 27.944 58.0749 28.084 57.4109 28.084ZM57.4109 26.8C57.7789 26.8 58.1069 26.72 58.3949 26.56C58.6829 26.4 58.9069 26.168 59.0669 25.864C59.2349 25.56 59.3189 25.204 59.3189 24.796C59.3189 24.38 59.2349 24.024 59.0669 23.728C58.9069 23.424 58.6829 23.192 58.3949 23.032C58.1069 22.872 57.7829 22.792 57.4229 22.792C57.0549 22.792 56.7269 22.872 56.4389 23.032C56.1589 23.192 55.9349 23.424 55.7669 23.728C55.5989 24.024 55.5149 24.38 55.5149 24.796C55.5149 25.204 55.5989 25.56 55.7669 25.864C55.9349 26.168 56.1589 26.4 56.4389 26.56C56.7269 26.72 57.0509 26.8 57.4109 26.8ZM62.2653 28V19.096H63.7653V28H62.2653ZM68.446 28.084C67.902 28.084 67.422 27.984 67.006 27.784C66.59 27.576 66.266 27.264 66.034 26.848C65.802 26.424 65.686 25.892 65.686 25.252V21.592H67.186V25.048C67.186 25.624 67.314 26.056 67.57 26.344C67.834 26.624 68.206 26.764 68.686 26.764C69.038 26.764 69.342 26.692 69.598 26.548C69.862 26.404 70.066 26.188 70.21 25.9C70.362 25.612 70.438 25.256 70.438 24.832V21.592H71.938V28H70.51V26.272L70.762 26.8C70.546 27.216 70.23 27.536 69.814 27.76C69.398 27.976 68.942 28.084 68.446 28.084ZM76.314 28.084C75.61 28.084 75.066 27.904 74.682 27.544C74.298 27.176 74.106 26.636 74.106 25.924V20.176H75.606V25.888C75.606 26.192 75.682 26.428 75.834 26.596C75.994 26.764 76.214 26.848 76.494 26.848C76.83 26.848 77.11 26.76 77.334 26.584L77.754 27.652C77.578 27.796 77.362 27.904 77.106 27.976C76.85 28.048 76.586 28.084 76.314 28.084ZM73.05 22.84V21.64H77.322V22.84H73.05ZM78.9879 28V21.592H80.4879V28H78.9879ZM79.7439 20.536C79.4639 20.536 79.2319 20.448 79.0479 20.272C78.8719 20.096 78.7839 19.884 78.7839 19.636C78.7839 19.38 78.8719 19.168 79.0479 19C79.2319 18.824 79.4639 18.736 79.7439 18.736C80.0239 18.736 80.2519 18.82 80.4279 18.988C80.6119 19.148 80.7039 19.352 80.7039 19.6C80.7039 19.864 80.6159 20.088 80.4399 20.272C80.2639 20.448 80.0319 20.536 79.7439 20.536ZM85.3367 28.084C84.6807 28.084 84.0967 27.944 83.5847 27.664C83.0727 27.376 82.6687 26.984 82.3727 26.488C82.0767 25.992 81.9287 25.428 81.9287 24.796C81.9287 24.156 82.0767 23.592 82.3727 23.104C82.6687 22.608 83.0727 22.22 83.5847 21.94C84.0967 21.66 84.6807 21.52 85.3367 21.52C86.0007 21.52 86.5887 21.66 87.1007 21.94C87.6207 22.22 88.0247 22.604 88.3127 23.092C88.6087 23.58 88.7567 24.148 88.7567 24.796C88.7567 25.428 88.6087 25.992 88.3127 26.488C88.0247 26.984 87.6207 27.376 87.1007 27.664C86.5887 27.944 86.0007 28.084 85.3367 28.084ZM85.3367 26.8C85.7047 26.8 86.0327 26.72 86.3207 26.56C86.6087 26.4 86.8327 26.168 86.9927 25.864C87.1607 25.56 87.2447 25.204 87.2447 24.796C87.2447 24.38 87.1607 24.024 86.9927 23.728C86.8327 23.424 86.6087 23.192 86.3207 23.032C86.0327 22.872 85.7087 22.792 85.3487 22.792C84.9807 22.792 84.6527 22.872 84.3647 23.032C84.0847 23.192 83.8607 23.424 83.6927 23.728C83.5247 24.024 83.4407 24.38 83.4407 24.796C83.4407 25.204 83.5247 25.56 83.6927 25.864C83.8607 26.168 84.0847 26.4 84.3647 26.56C84.6527 26.72 84.9767 26.8 85.3367 26.8ZM93.827 21.52C94.339 21.52 94.795 21.62 95.195 21.82C95.603 22.02 95.923 22.328 96.155 22.744C96.387 23.152 96.503 23.68 96.503 24.328V28H95.003V24.52C95.003 23.952 94.867 23.528 94.595 23.248C94.331 22.968 93.959 22.828 93.479 22.828C93.127 22.828 92.815 22.9 92.543 23.044C92.271 23.188 92.059 23.404 91.907 23.692C91.763 23.972 91.691 24.328 91.691 24.76V28H90.191V21.592H91.619V23.32L91.367 22.792C91.591 22.384 91.915 22.072 92.339 21.856C92.771 21.632 93.267 21.52 93.827 21.52ZM100.386 28.084C99.8499 28.084 99.3339 28.016 98.8379 27.88C98.3499 27.736 97.9619 27.564 97.6739 27.364L98.2499 26.224C98.5379 26.408 98.8819 26.56 99.2819 26.68C99.6819 26.8 100.082 26.86 100.482 26.86C100.954 26.86 101.294 26.796 101.502 26.668C101.718 26.54 101.826 26.368 101.826 26.152C101.826 25.976 101.754 25.844 101.61 25.756C101.466 25.66 101.278 25.588 101.046 25.54C100.814 25.492 100.554 25.448 100.266 25.408C99.9859 25.368 99.7019 25.316 99.4139 25.252C99.1339 25.18 98.8779 25.08 98.6459 24.952C98.4139 24.816 98.2259 24.636 98.0819 24.412C97.9379 24.188 97.8659 23.892 97.8659 23.524C97.8659 23.116 97.9819 22.764 98.2139 22.468C98.4459 22.164 98.7699 21.932 99.1859 21.772C99.6099 21.604 100.11 21.52 100.686 21.52C101.118 21.52 101.554 21.568 101.994 21.664C102.434 21.76 102.798 21.896 103.086 22.072L102.51 23.212C102.206 23.028 101.898 22.904 101.586 22.84C101.282 22.768 100.978 22.732 100.674 22.732C100.218 22.732 99.8779 22.8 99.6539 22.936C99.4379 23.072 99.3299 23.244 99.3299 23.452C99.3299 23.644 99.4019 23.788 99.5459 23.884C99.6899 23.98 99.8779 24.056 100.11 24.112C100.342 24.168 100.598 24.216 100.878 24.256C101.166 24.288 101.45 24.34 101.73 24.412C102.01 24.484 102.266 24.584 102.498 24.712C102.738 24.832 102.93 25.004 103.074 25.228C103.218 25.452 103.29 25.744 103.29 26.104C103.29 26.504 103.17 26.852 102.93 27.148C102.698 27.444 102.366 27.676 101.934 27.844C101.502 28.004 100.986 28.084 100.386 28.084Z" fill="#088632"/>
<path d="M113 29.06H106V27.76H111.9V24.1H113V29.06ZM113 24.0539L106 20.9039V19.6239L113 16.4639V17.8239L106.69 20.5339V20.0139L113 22.7139V24.0539ZM111.38 22.6039L110.36 22.2539V18.4739L111.38 18.1239V22.6039ZM113 15.5737H106V12.2937C106 11.4537 106.167 10.8137 106.5 10.3737C106.827 9.93367 107.267 9.71367 107.82 9.71367C108.193 9.71367 108.513 9.80034 108.78 9.97367C109.04 10.147 109.243 10.3803 109.39 10.6737C109.53 10.9603 109.6 11.2737 109.6 11.6137L109.24 11.4337C109.24 11.0403 109.313 10.687 109.46 10.3737C109.6 10.0603 109.807 9.81367 110.08 9.63367C110.353 9.447 110.693 9.35367 111.1 9.35367C111.7 9.35367 112.167 9.58367 112.5 10.0437C112.833 10.5037 113 11.187 113 12.0937V15.5737ZM111.98 14.2737V12.1737C111.98 11.687 111.9 11.3137 111.74 11.0537C111.58 10.7937 111.323 10.6637 110.97 10.6637C110.623 10.6637 110.37 10.7937 110.21 11.0537C110.043 11.3137 109.96 11.687 109.96 12.1737V14.3737H108.95V12.4337C108.95 11.9803 108.87 11.6337 108.71 11.3937C108.55 11.147 108.31 11.0237 107.99 11.0237C107.663 11.0237 107.42 11.147 107.26 11.3937C107.1 11.6337 107.02 11.9803 107.02 12.4337V14.2737H111.98Z" fill="black"/>
</svg>
